<svg xmlns="http://www.w3.org/2000/svg" fill="#ffffff" viewBox="0 0 190.8 180.04"><g id="Layer_2" data-name="Layer 2"><g id="Layer_2-2" data-name="Layer 2"><path class="cls-1" d="M50.74,67.73H25.68a4,4,0,0,0-3.79,2.74l-4,12.11a4,4,0,0,1-3.8,2.73H4A4,4,0,0,1,.25,79.92L29,2.6A4,4,0,0,1,32.78,0H43.52a4,4,0,0,1,3.75,2.6L76.2,79.91a4,4,0,0,1-3.74,5.4h-10a4,4,0,0,1-3.79-2.72L54.53,70.46A4,4,0,0,0,50.74,67.73ZM33.09,53.5H43.31a4,4,0,0,0,3.79-5.28L42,32.92a4,4,0,0,0-7.59,0L29.29,48.24A4,4,0,0,0,33.09,53.5Z"/><path class="cls-1" d="M151.57,85.31H140.24a4,4,0,0,1-3.42-1.92l-25.63-42a4,4,0,0,0-7.42,2.09V81.31a4,4,0,0,1-4,4H90.2a4,4,0,0,1-4-4V4a4,4,0,0,1,4-4h11.33a4,4,0,0,1,3.41,1.92l25.7,42.16A4,4,0,0,0,138.05,42V4a4,4,0,0,1,4-4h9.52a4,4,0,0,1,4,4V81.31A4,4,0,0,1,151.57,85.31Z"/><path class="cls-1" d="M185.78,180H176.2c-1.17,0-3-1.72-3-3.86L171.89,3.92a3.94,3.94,0,0,1,4-3.92h9.57a3.94,3.94,0,0,1,4,3.86l1.34,172.26C190.82,178.28,189,180,185.78,180Z"/><path class="cls-1" d="M23.91,97.39,41.1,145.93a4,4,0,0,0,7.55,0L65.74,97.4a4,4,0,0,1,3.77-2.67H85.77a4,4,0,0,1,4,4V176a4,4,0,0,1-4,4H76.13a4,4,0,0,1-4-4V156.72l.62-14.16A4,4,0,0,0,65,141L51.81,177.4A4,4,0,0,1,48.05,180H41.6a4,4,0,0,1-3.77-2.64L24.72,141.14A4,4,0,0,0,17,142.67l.62,14.05V176a4,4,0,0,1-4,4H4a4,4,0,0,1-4-4V98.73a4,4,0,0,1,4-4H20.14A4,4,0,0,1,23.91,97.39Z"/><path class="cls-1" d="M144.58,162.46H119.52a4,4,0,0,0-3.8,2.73l-4,12.11a4,4,0,0,1-3.8,2.74h-10a4,4,0,0,1-3.75-5.4l28.78-77.31a4,4,0,0,1,3.75-2.6h10.74a4,4,0,0,1,3.74,2.59L170,174.64a4,4,0,0,1-3.74,5.4H156.25a4,4,0,0,1-3.79-2.73l-4.09-12.13A4,4,0,0,0,144.58,162.46Zm-17.65-14.24h10.22a4,4,0,0,0,3.79-5.27l-5.14-15.31a4,4,0,0,0-7.59,0L123.13,143A4,4,0,0,0,126.93,148.22Z"/></g></g></svg>
